# xmcd
#
# Track frame offsets: 
#        150
#        17567
#        27974
#        41021
#        53658
#        70220
#        81879
#        94725
#        106942
#        122622
#        134007
#        149245
#
# Disc length: 2182 seconds
#
# Revision: 0
# Processed by: cddbd v1.4PL0 Copyright (c) Steve Scherf et al.
# Submitted via: ExactAudioCopy v0.90b4
#
DISCID=a708840c
DTITLE=Commander Cody and his Lost Planet Airmen - Tales From The Ozon
DTITLE=e
DYEAR=1976
DGENRE=Classic Rock
TTITLE0=Minnie The Moocher
TTITLE1=It's Gonna Be One Of Those Nights
TTITLE2=Connie
TTITLE3=I Been To Georgia On A Fast Train
TTITLE4=Honky Tonk Music
TTITLE5=Lightnin' Bar Blues
TTITLE6=Paid In Advance
TTITLE7=Cajun Baby
TTITLE8=Tina Louise
TTITLE9=The Shadow Knows
TTITLE10=Roll Your Own
TTITLE11=Gypsy Fiddle
EXTD=
EXTT0=Minnie The Moocher
EXTT1=
EXTT2=
EXTT3=
EXTT4=
EXTT5=
EXTT6=
EXTT7=
EXTT8=
EXTT9=
EXTT10=
EXTT11=
PLAYORDER=
